<svg xmlns="http://www.w3.org/2000/svg" viewBox="0 0 32 32" fill="none">
  <rect width="32" height="32" rx="6" fill="#1e293b"/>
  <path d="M8 24V8h4.8c1.6 0 2.8.4 3.7 1.1.9.7 1.3 1.7 1.3 3 0 .7-.2 1.3-.5 1.8-.3.5-.8.9-1.4 1.2.7.2 1.3.6 1.7 1.2.4.6.6 1.3.6 2.1 0 1.4-.4 2.5-1.3 3.2-.9.8-2.1 1.2-3.7 1.2H8zm3-9.5h1.5c.6 0 1-.1 1.3-.4.3-.3.4-.6.4-1.1 0-.5-.1-.9-.4-1.2-.3-.3-.7-.4-1.3-.4H11v3.1zm0 2.3v4h2c.6 0 1.1-.2 1.4-.5.3-.3.5-.8.5-1.4 0-1.3-.6-2-1.9-2H11z" fill="#60a5fa"/>
  <circle cx="24" cy="10" r="2" fill="#10b981"/>
  <circle cx="24" cy="22" r="2" fill="#ef4444"/>
</svg>
